/vscmnt/brussel_pixiu_data/_data_brussel/112/vsc11236/PredSimResults/SUBJ09opt3D/weighted-trackIG/worker_05.mot
version=1
nRows=5
nColumns=50
inDegrees=yes
endheader
                time	         pelvis_tilt	         pelvis_list	     pelvis_rotation	           pelvis_tx	           pelvis_ty	           pelvis_tz	       hip_flexion_r	     hip_adduction_r	      hip_rotation_r	        knee_angle_r	       ankle_angle_r	         mtp_angle_r	       hip_flexion_l	     hip_adduction_l	      hip_rotation_l	        knee_angle_l	       ankle_angle_l	         mtp_angle_l	    lumbar_extension	      lumbar_bending	     lumbar_rotation	 ercspn_r/activation	 intobl_r/activation	 extobl_r/activation	    abd_r/activation	    add_r/activation	hamstrings_r/activation	bifemsh_r/activation	glut_max_r/activation	iliopsoas_r/activation	rect_fem_r/activation	  vasti_r/activation	gastroc_r/activation	 soleus_r/activation	tib_ant_r/activation	 ercspn_l/activation	 intobl_l/activation	 extobl_l/activation	    abd_l/activation	    add_l/activation	hamstrings_l/activation	bifemsh_l/activation	glut_max_l/activation	iliopsoas_l/activation	rect_fem_l/activation	  vasti_l/activation	gastroc_l/activation	 soleus_l/activation	tib_ant_l/activation	
          0.00000000	         -3.63482074	         -1.58790950	          7.48778061	          0.00000000	          0.99447144	         -0.00052277	         23.02765772	          0.35188903	         -4.55940164	          2.39062599	          2.23788378	          0.25521299	        -11.51483099	         -3.10670985	         -3.81272806	        -13.08737303	          5.05176587	         37.21815425	        -12.13159571	         -1.06997476	        -10.96721987	          0.03685693	          0.19804329	          0.04884216	          0.00999999	          0.27765106	          0.05577941	          0.01000000	          0.01958010	          0.08300593	          0.02039624	          0.06855850	          0.00999999	          0.00999999	          0.32739017	          0.00999999	          0.00999999	          0.00999999	          0.05194762	          0.00999999	          0.02271940	          0.28252229	          0.01829073	          0.00999999	          0.00999999	          0.00999999	          0.30768215	          0.25938671	          0.01069094	
          0.01337730	         -3.69194073	         -1.78372674	          7.44763677	          0.02011187	          0.99240843	          0.00052788	         22.59706195	          0.73699306	         -4.78170069	          1.35886895	          1.56216833	          0.21800535	        -11.97856918	         -3.53672982	         -4.40670432	        -14.14659616	          3.97998246	         38.96959744	        -11.48102831	         -0.48876644	        -11.12620306	          0.03013760	          0.16234591	          0.03993782	          0.04392214	          0.22703294	          0.06901578	          0.00999999	          0.03792918	          0.06787325	          0.01667783	          0.05605971	          0.01222954	          0.01222954	          0.37310224	          0.01088659	          0.00999999	          0.00999999	          0.04247713	          0.00999999	          0.03838877	          0.27036586	          0.01495617	          0.02408576	          0.00999999	          0.00999999	          0.28066142	          0.23638893	          0.00999999	
          0.02675460	         -3.72773027	         -2.03555885	          7.37102751	          0.04045997	          0.99067268	          0.00162063	         22.01247562	          1.17302514	         -5.07669656	          0.56687369	          0.69294721	          0.20801770	        -12.25477540	         -4.04536332	         -5.03073184	        -15.57423319	          2.73048823	         40.68882974	        -10.81939404	          0.16786887	        -11.22007947	          0.02464326	          0.13274889	          0.03265682	          0.10080620	          0.18564292	          0.07162402	          0.01222954	          0.05573730	          0.05549938	          0.01363732	          0.04583955	          0.00999999	          0.00999999	          0.43680210	          0.01000000	          0.00999999	          0.00999999	          0.03473319	          0.00999999	          0.05298024	          0.22613839	          0.01222954	          0.04428804	          0.00999999	          0.00999999	          0.23352993	          0.20035382	          0.00999999	
          0.04013190	         -3.74682609	         -2.32023106	          7.26075349	          0.06067552	          0.98951687	          0.00278316	         21.34559966	          1.65094765	         -5.44361133	         -0.08699280	         -0.14960271	          0.16782890	        -12.25888287	         -4.61592559	         -5.67806916	        -17.46290023	          1.27969201	         42.22912722	        -10.19005549	          0.86900369	        -11.25278532	          0.02015059	          0.10854765	          0.02670321	          0.15663406	          0.15179866	          0.07301853	          0.01000001	          0.06259710	          0.04538138	          0.01115112	          0.03813478	          0.00999999	          0.00999999	          0.47372220	          0.03655627	          0.00999999	          0.00999999	          0.02840104	          0.00999999	          0.06972570	          0.18491146	          0.00999999	          0.03621397	          0.00999999	          0.00999999	          0.19095545	          0.16382763	          0.00999999	
          0.05350920	         -3.75341453	         -2.62261905	          7.12492251	          0.08042357	          0.98915687	          0.00400590	         20.66966471	          2.15105253	         -5.81614324	         -0.77183716	         -0.59623133	          0.12879703	        -11.92855046	         -5.24130884	         -6.34377352	        -19.86930251	         -0.34543361	         43.31814673	         -9.62820870	          1.59572391	        -11.23100218	          0.01647697	          0.08875850	          0.02183499	          0.19928644	          0.12412451	          0.07236637	          0.01000000	          0.09766896	          0.03710797	          0.00999999	          0.05627648	          0.00999999	          0.00999999	          0.47737513	          0.07350196	          0.00999999	          0.00999999	          0.02322329	          0.05532271	          0.08178379	          0.15120055	          0.00999999	          0.04789205	          0.00999999	          0.00999999	          0.15614267	          0.13396047	          0.00999999	
